<svg xmlns="http://www.w3.org/2000/svg" xmlns:xlink="http://www.w3.org/1999/xlink" version="1.1" x="0px" y="0px" viewBox="0 0 64 80" enable-background="new 0 0 64 64" xml:space="preserve"><g><path d="M39.204,36.806c-0.61,0-1.227,0.062-1.833,0.182c0.059-0.477,0.088-0.954,0.088-1.433c0-6.529-5.312-11.841-11.84-11.841   c-6.448,0-11.709,5.182-11.838,11.601c-0.872-0.232-1.769-0.35-2.68-0.35c-5.681,0-10.303,4.622-10.303,10.304   c0,5.666,4.622,10.276,10.303,10.276h28.103c5.167,0,9.37-4.204,9.37-9.371C48.574,41.008,44.371,36.806,39.204,36.806z    M39.204,53.545H11.102c-4.579,0-8.303-3.713-8.303-8.276c0-4.579,3.725-8.304,8.303-8.304c1.149,0,2.27,0.23,3.331,0.686   l-0.004,0.009c1.7,0.748,3.12,2.062,3.998,3.7l1.763-0.945c-0.992-1.849-2.543-3.358-4.404-4.313   c-0.006-0.18-0.006-0.364-0.006-0.546c0-5.426,4.415-9.841,9.84-9.841s9.84,4.415,9.84,9.841c0,0.732-0.102,1.464-0.267,2.186   c-1.612,0.772-3.012,1.987-3.959,3.515l1.7,1.055c0.825-1.332,2.075-2.387,3.518-2.971l-0.001-0.003   c0.869-0.347,1.821-0.53,2.753-0.53c4.064,0,7.37,3.306,7.37,7.368C46.574,50.238,43.268,53.545,39.204,53.545z"/><path d="M49.495,14.355c-4.304,0-7.806,3.502-7.806,7.807c0,4.304,3.501,7.805,7.806,7.805s7.806-3.501,7.806-7.805   C57.301,17.857,53.799,14.355,49.495,14.355z M49.495,27.967c-3.201,0-5.806-2.604-5.806-5.805c0-3.202,2.604-5.807,5.806-5.807   c3.202,0,5.806,2.604,5.806,5.807C55.301,25.363,52.697,27.967,49.495,27.967z"/><rect x="48.495" y="9.455" width="2" height="3.293"/><rect x="40.02" y="13.34" transform="matrix(0.7113 0.7029 -0.7029 0.7113 22.109 -25.1434)" width="3.28" height="2"/><rect x="36.761" y="21.162" width="3.293" height="2"/><rect x="40.011" y="28.996" transform="matrix(-0.7073 0.707 -0.707 -0.7073 92.3305 21.759)" width="3.299" height="2"/><rect x="48.495" y="31.603" width="2" height="3.293"/><rect x="55.677" y="28.996" transform="matrix(-0.703 -0.7112 0.7112 -0.703 76.2773 91.8464)" width="3.279" height="2.001"/><rect x="58.908" y="21.162" width="3.294" height="2"/><rect x="56.317" y="12.71" transform="matrix(0.7071 0.7071 -0.7071 0.7071 26.9278 -36.3288)" width="2" height="3.26"/></g></svg>