<?xml version="1.0" encoding="utf-8"?>
<!-- Svg Vector Icons : http://www.onlinewebfonts.com/icon -->
<!DOCTYPE svg PUBLIC "-//W3C//DTD SVG 1.1//EN" "http://www.w3.org/Graphics/SVG/1.1/DTD/svg11.dtd">
<svg version="1.1" xmlns="http://www.w3.org/2000/svg" xmlns:xlink="http://www.w3.org/1999/xlink" x="0px" y="0px" viewBox="0 0 256 256" enable-background="new 0 0 256 256" xml:space="preserve">
<metadata> Svg Vector Icons : http://www.onlinewebfonts.com/icon </metadata>
<g><g><g><path fill="#000000" d="M125.3,11.1l-1.4,1.2v11.1c0,11.1,0,11.1,1.2,12.4c1.6,1.7,4.3,1.8,5.9,0.1c1.2-1.3,1.1-0.6,1.1-15c-0.1-8.4-0.1-8.5-1.3-9.7C129.3,9.6,127.1,9.6,125.3,11.1z"/><path fill="#000000" d="M68.3,26.7c-0.8,0.8-1.4,2-1.4,2.6c0,1.4,10.1,19,11.5,20c1.5,1,3.5,0.9,4.9-0.2c1.5-1.2,1.9-2.9,1.1-4.8c-1.2-2.8-9.7-17.2-10.7-18.1C72.1,24.8,70,25,68.3,26.7z"/><path fill="#000000" d="M182.3,26.3c-0.6,0.6-3.3,5-6,9.7c-5.4,9.4-5.8,10.9-3.5,12.8c0.7,0.6,1.9,1.1,2.7,1.1c0.8,0,2-0.5,2.7-1.1c2.1-1.9,10.8-17.6,10.9-19.6C189.1,25.9,184.6,23.9,182.3,26.3z"/><path fill="#000000" d="M117.5,55.1c-28,4.6-50.8,24-59.5,50.5c-2.7,8.4-3.3,12-3.3,22.4c0,8.3,0.1,10.3,1.1,14.8c5.8,26,24.9,47.1,49.8,55.3c8.4,2.8,12,3.3,22.4,3.3c7.6,0,10.5-0.2,13.8-0.9c14.8-3.2,27.6-10.2,38-20.6c10.4-10.5,17.7-24,20.6-38.4c1.3-6.6,1.2-21.4-0.2-27.9c-6.5-29.2-28.6-51.4-57.7-57.8C136.9,54.5,123.2,54.1,117.5,55.1z M138.5,63.5c9.4,1.5,19,5.3,27,10.7c4.9,3.3,13.1,11.5,16.3,16.3c8.3,12.3,11.9,25.2,11.4,40c-0.6,17.6-6.6,31.6-18.8,43.8c-8,8-15.6,12.6-26.2,16c-7.5,2.4-13.5,3.2-22.5,2.9c-10.7-0.4-17.9-2.1-27.1-6.6C81,177.8,68.3,161.3,64,141.3c-1.3-5.9-1.3-20.8,0-26.7c4.3-20.1,17.3-36.9,35.2-45.5c4.9-2.3,12.2-4.6,17-5.4c2-0.3,4.1-0.6,4.4-0.7C123.1,62.6,134.5,62.9,138.5,63.5z"/><path fill="#000000" d="M28,67.2c-2.6,1.1-3.5,4.7-1.5,6.6c0.6,0.6,4.9,3.3,9.5,5.9c9.5,5.3,11.2,5.8,13,3.5c1.3-1.7,1.3-3.8-0.1-5.3C47.7,76.6,31.8,67.4,30.1,67C29.5,66.9,28.5,67,28,67.2z"/><path fill="#000000" d="M216.8,71.9c-4.9,2.9-9.3,5.7-9.7,6.3c-2.9,3.5,1.4,8.1,5.5,5.9c5-2.6,16.7-9.7,17.4-10.5c1.9-2.2,0.2-6-2.9-6.6C225.9,66.7,224.2,67.6,216.8,71.9z"/><path fill="#000000" d="M14.3,124c-4.1,0.6-5.5,3.9-3.1,6.8l1.2,1.4l11.3-0.1c10.7-0.1,11.3-0.2,12.4-1.2c0.8-0.7,1.1-1.6,1.1-2.8c0-2.1-0.8-3.3-2.7-4C33,123.5,18.2,123.4,14.3,124z"/><path fill="#000000" d="M223.2,123.9c-0.5,0.1-1.5,0.3-2.1,0.4c-0.7,0.1-1.4,0.9-1.9,1.9c-1,2.5,0,4.8,2.6,5.7c2.7,0.9,21.1,0.3,22.7-0.7c1.3-0.9,1.9-3.1,1.2-4.9c-0.9-2.3-2.9-2.8-12.7-2.7C228.2,123.6,223.8,123.7,223.2,123.9z"/><path fill="#000000" d="M44.3,171.7c-3.4,1.4-18,10.3-18.4,11.1c-0.9,1.7-0.5,3.5,1,5c1.2,1.2,1.8,1.4,3,1.2c1.9-0.3,17.7-9.5,19.2-11c0.6-0.6,1.1-1.8,1.1-2.6c0-1.6-1.7-3.7-3.2-4.1C46.3,171.1,45.1,171.3,44.3,171.7z"/><path fill="#000000" d="M207.3,172.6c-1.5,1.6-1.4,4.3,0,5.6c0.6,0.5,4.9,3.2,9.5,5.8c9.4,5.4,10.9,5.9,12.9,3.5c1.5-1.7,1.5-4,0.1-5.4c-0.6-0.6-4.9-3.3-9.6-5.9C210.9,171,209.2,170.5,207.3,172.6z"/><path fill="#000000" d="M77.9,207.1c-0.5,0.6-3.2,4.9-5.9,9.5c-5.4,9.4-5.8,10.9-3.5,12.9c1.6,1.4,3.8,1.5,5.1,0.3c0.5-0.4,3.3-4.7,6-9.5c5.6-9.7,6-11.4,3.7-13.2C81.6,205.7,79.1,205.8,77.9,207.1z"/><path fill="#000000" d="M172.7,207.1c-2.2,2.4-2,3,3.6,12.7c2.9,5,5.7,9.5,6.2,10c1.4,1.2,3.6,1.1,5.2-0.3c2.4-2,2-3.5-3.5-12.9c-2.7-4.6-5.4-8.9-6.1-9.5c-0.7-0.6-1.8-1.1-2.8-1.1C174.3,206.1,173.4,206.4,172.7,207.1z"/><path fill="#000000" d="M126.3,219.1c-2.3,1-2.6,2.7-2.6,13.2c0,9.9,0.4,12.2,2.4,13.2c1.7,0.9,3.5,0.6,4.8-0.7l1.2-1.2v-11.3c0-11.1,0-11.3-1.1-12.3C129.4,218.7,128.1,218.4,126.3,219.1z"/></g></g></g>
</svg>